# xmcd
#
# Track frame offsets:
#	150
#	29192
#	41727
#	54775
#	68745
#	79880
#	94017
#	106977
#	135192
#	165882
#
# Disc length: 2352 seconds
#
# Revision: 0
# Processed by: cddbd v1.5.1PL0 Copyright (c) Steve Scherf et al.
# Submitted via: EasyCDDAExtractor 7.1.3.1
#
DISCID=75092e0a
DTITLE=Ray Charles - Golden Legends
DYEAR=1999
DGENRE=Blues
TTITLE0=What'd I Say
TTITLE1=Leave My Woman Alone
TTITLE2=Baby Won't You Please Come Home
TTITLE3=This Love Of Mine
TTITLE4=A Sentimental Blues
TTITLE5=Kiss Me Baby
TTITLE6=Heartbreaker
TTITLE7=I Got A Woman
TTITLE8=Georgia On My Mind
TTITLE9=Sittin' On Top Of The World
EXTD=
EXTT0=
EXTT1=
EXTT2=
EXTT3=
EXTT4=
EXTT5=
EXTT6=
EXTT7=
EXTT8=
EXTT9=
PLAYORDER=
